<svg width="93" height="93" viewBox="0 0 93 93" fill="none" xmlns="http://www.w3.org/2000/svg">
<path d="M50.5338 27.2816C50.4108 27.4783 50.6076 31.0937 50.7551 31.2413C50.7797 31.2413 55.5019 31.3397 61.257 31.4135L71.7097 31.561L71.7835 32.3481L71.8573 33.1105L73.8741 33.2581C74.9808 33.3564 76.3335 33.4302 76.8746 33.4794C77.8092 33.5286 77.8584 33.5778 77.9813 34.3894C78.1043 35.201 78.1535 35.2502 79.1619 35.324L80.1949 35.3978V36.5045C80.1949 37.5867 80.1949 37.5867 81.0311 37.5867C81.4984 37.5867 81.9657 37.6851 82.0395 37.8326C82.1132 37.9556 82.5068 38.0786 82.9003 38.0786C83.5889 38.0786 83.6135 38.1278 83.7611 39.6035C83.8595 40.4643 83.8841 41.7678 83.8349 42.5056C83.7611 43.8337 83.7365 43.8583 82.9741 43.9321C82.2362 44.0059 82.1624 44.0797 82.1624 44.8421C82.1624 46.1456 81.9657 46.4408 81.0311 46.4408C80.2686 46.4408 80.1949 46.5145 80.1949 47.1294C80.1949 48.0394 79.7768 48.4083 78.793 48.4083C78.0305 48.4083 77.9813 48.4575 77.9813 49.2445C77.9813 50.0808 77.9568 50.1053 76.8254 50.1791C75.6941 50.2529 75.6449 50.2775 75.5219 51.1137L75.3989 51.9745L73.6281 52.1959L71.8327 52.4172V53.4748V54.5324L70.7997 54.6062C69.7668 54.6799 69.7422 54.7045 69.6684 55.5899L69.5946 56.4999L68.3157 56.5737C67.0859 56.6475 67.0368 56.6721 66.963 57.4099C66.8892 58.2462 66.9138 58.2216 64.1592 58.6397C63.2984 58.7872 63.2246 58.861 63.2246 59.5989C63.2246 60.3859 63.1754 60.4351 62.3146 60.5089C61.4046 60.5826 61.38 60.6072 61.257 61.6894L61.1341 62.7962L59.9781 62.8699C58.8468 62.9437 58.8222 62.9683 58.7484 63.8537C58.6746 64.6899 58.6008 64.7637 57.8876 64.8375C57.1251 64.9113 57.0759 64.9851 57.0759 65.8951C57.0759 66.8051 57.1251 66.8543 57.7892 66.8543C58.4532 66.8543 58.527 66.9281 58.6008 67.7643C58.6746 68.6989 58.6746 68.6989 59.9043 68.8218C61.0849 68.9448 61.1341 68.9694 61.2078 69.7318C61.2816 70.4697 61.3554 70.5435 62.1178 70.5435C62.8803 70.5435 62.9541 70.4697 63.0278 69.7318L63.1016 68.9448L65.02 68.7235L66.9138 68.5267V67.6905C66.9138 66.8789 66.9138 66.8789 68.2173 66.8051L69.4962 66.7313L69.57 65.8213C69.6438 64.9359 69.693 64.9113 70.6768 64.8375C71.6359 64.7637 71.7097 64.7145 71.7835 63.9521C71.8573 63.2635 71.9557 63.1651 72.5705 63.1651C72.9641 63.1651 73.3576 63.0421 73.4313 62.9191C73.5051 62.7716 73.9478 62.6732 74.4151 62.6732C75.2268 62.6732 75.2513 62.6486 75.3251 61.6156L75.3989 60.5826L76.6286 60.4597C77.8338 60.3367 77.8584 60.3367 77.9322 59.4267C78.0059 58.5413 78.0551 58.5167 79.0389 58.4429C79.9981 58.3691 80.0719 58.3199 80.1457 57.5575C80.2195 56.8689 80.3178 56.7705 80.9327 56.7705C81.3262 56.7705 81.7197 56.6475 81.7935 56.5245C81.8673 56.377 82.3346 56.2786 82.8019 56.2786C83.5643 56.2786 83.6381 56.2048 83.6381 55.5899C83.6381 54.7045 84.0316 54.311 84.917 54.311C85.5565 54.311 85.6057 54.2372 85.6057 53.3764C85.6057 52.8599 85.7286 52.3189 85.9008 52.1467C86.073 51.9745 86.614 51.8516 87.1305 51.8516C87.9668 51.8516 88.0651 51.7778 88.0651 51.2613C88.0651 50.2037 88.3111 49.884 89.1719 49.884H89.9589L90.2541 47.4245C90.4016 46.0472 90.5246 44.6699 90.5246 44.3502C90.5246 43.8337 90.6476 43.7353 91.2624 43.7353H92.0003V41.9153V40.0708L91.2132 39.997L90.4016 39.9232L90.2786 37.7097L90.1557 35.4962L89.2457 35.4224C88.3357 35.3486 88.3111 35.324 88.3111 34.3648V33.4056H87.1059H85.8762L85.8024 32.471C85.7286 31.5856 85.7041 31.561 84.6957 31.4872C83.6873 31.4135 83.6381 31.3889 83.6381 30.5772V29.7656L81.8673 29.618C80.8835 29.5197 79.6292 29.4459 79.0881 29.3967C78.1289 29.3475 78.1043 29.3229 78.0305 28.3391L77.9568 27.3308L76.0876 27.1586C72.7673 26.888 50.7305 26.9864 50.5338 27.2816Z" fill="black"/>
<path d="M61.5029 49.1455C61.503 48.4819 61.5766 48.4082 62.2158 48.4082C62.6339 48.4082 63.0278 48.2851 63.1016 48.1621C63.1755 48.0147 63.6423 47.9161 64.1094 47.916H64.9463V43.4893H64.2324C63.5933 43.4892 63.4947 43.3907 63.4209 42.6777C63.3471 41.9399 63.2731 41.8909 62.1172 41.7188C61.4528 41.645 59.5102 41.5711 57.8135 41.5957C56.1163 41.5957 43.6222 41.6936 30.0215 41.792C16.4207 41.8658 5.15636 41.9647 5.00879 41.9893C4.83673 41.9894 4.68954 42.3331 4.68945 42.751C4.68945 43.4396 4.61497 43.4893 3.85254 43.4893C3.38539 43.4893 2.91849 43.5878 2.84473 43.7354C2.77076 43.8583 2.30311 43.9814 1.83594 43.9814C1.02459 43.9815 1 44.0059 1 44.9404C1.00001 45.8503 1.04931 45.9243 1.78711 45.998C2.52485 46.0718 2.59907 46.1454 2.67285 46.957L2.74609 47.8428L4.39453 48.0146C5.30674 48.0884 12.9794 48.1621 21.4385 48.1621C29.8989 48.1621 38.9991 48.2356 41.6553 48.334L46.5 48.4814V49.8838H61.5029V49.1455Z" fill="black"/>
<path d="M61.5029 49.1455C61.503 48.4819 61.5766 48.4082 62.2158 48.4082C62.6339 48.4082 63.0278 48.2851 63.1016 48.1621C63.1755 48.0147 63.6423 47.9161 64.1094 47.916H64.9463V43.4893H64.2324C63.5933 43.4892 63.4947 43.3907 63.4209 42.6777C63.3471 41.9399 63.2731 41.8909 62.1172 41.7188C61.4528 41.645 59.5102 41.5711 57.8135 41.5957C56.1163 41.5957 43.6222 41.6936 30.0215 41.792C16.4207 41.8658 5.15636 41.9647 5.00879 41.9893C4.83673 41.9894 4.68954 42.3331 4.68945 42.751C4.68945 43.4396 4.61497 43.4893 3.85254 43.4893C3.38539 43.4893 2.91849 43.5878 2.84473 43.7354C2.77076 43.8583 2.30311 43.9814 1.83594 43.9814C1.02459 43.9815 1 44.0059 1 44.9404C1.00001 45.8503 1.04931 45.9243 1.78711 45.998C2.52485 46.0718 2.59907 46.1454 2.67285 46.957L2.74609 47.8428L4.39453 48.0146C5.30674 48.0884 12.9794 48.1621 21.4385 48.1621C29.8989 48.1621 38.9991 48.2356 41.6553 48.334L46.5 48.4814V49.8838H61.5029V49.1455Z" stroke="black"/>
</svg>
