<svg width="57" height="57" viewBox="0 0 57 57" fill="none" xmlns="http://www.w3.org/2000/svg">
<path d="M14.3623 41.7852C14.5608 41.7851 14.7991 41.766 15.043 41.6279C15.2759 41.4961 15.4591 41.2873 15.6318 41.0264C15.9692 40.5169 16.3972 39.6018 17.1172 38.0166H17.1162C17.1945 37.847 17.2675 37.6822 17.3213 37.5527C17.348 37.4885 17.3718 37.4288 17.3896 37.3799C17.3984 37.356 17.4081 37.3291 17.416 37.3027C17.4163 37.3019 17.4197 37.2885 17.4248 37.2676C17.4276 37.2603 17.4317 37.2496 17.4375 37.2354C17.4554 37.1913 17.4819 37.1272 17.5166 37.0469C17.5847 36.8891 17.678 36.6779 17.7783 36.4521L18.0596 35.8223C18.095 35.7382 18.1251 35.6657 18.1465 35.6104C18.1569 35.5833 18.1668 35.5566 18.1748 35.5332C18.1786 35.5221 18.1837 35.5063 18.1885 35.4893C18.1892 35.4867 18.1895 35.483 18.1904 35.4795C18.1933 35.4722 18.1971 35.4611 18.2031 35.4463C18.2211 35.4022 18.2485 35.3383 18.2832 35.2578C18.3523 35.0976 18.4478 34.8829 18.5498 34.6533H18.5488C18.6586 34.4204 18.7559 34.2008 18.8262 34.0342C18.8617 33.95 18.8917 33.8767 18.9131 33.8213C18.9235 33.7942 18.9334 33.7675 18.9414 33.7441C18.9452 33.733 18.9503 33.7173 18.9551 33.7002C18.9557 33.698 18.9562 33.6953 18.957 33.6924C18.9598 33.6851 18.9634 33.6737 18.9697 33.6582C18.9876 33.6142 19.0151 33.5501 19.0498 33.4697C19.1179 33.3119 19.2113 33.1007 19.3115 32.875L19.5928 32.2451C19.6282 32.1611 19.6583 32.0886 19.6797 32.0332C19.6902 32.0061 19.7 31.9785 19.708 31.9551C19.7118 31.9439 19.7169 31.9281 19.7217 31.9111C19.7223 31.9089 19.7229 31.9062 19.7236 31.9033C19.7265 31.896 19.7301 31.8846 19.7363 31.8691C19.7543 31.825 19.7817 31.7612 19.8164 31.6807C19.8845 31.5228 19.9778 31.3117 20.0781 31.0859L20.3594 30.457C20.3949 30.3728 20.4249 30.2996 20.4463 30.2441C20.4567 30.2171 20.4666 30.1904 20.4746 30.167C20.4784 30.1559 20.4835 30.1401 20.4883 30.123C20.489 30.1204 20.4893 30.1169 20.4902 30.1133C20.493 30.106 20.4971 30.0954 20.5029 30.0811C20.5209 30.0369 20.5483 29.9722 20.583 29.8916C20.651 29.7339 20.7445 29.5233 20.8447 29.2979L21.126 28.668C21.1615 28.5838 21.1915 28.5105 21.2129 28.4551C21.2233 28.4281 21.2332 28.4012 21.2412 28.3779C21.245 28.3668 21.2501 28.351 21.2549 28.334C21.2555 28.3318 21.2561 28.3291 21.2568 28.3262C21.2596 28.3188 21.2632 28.3075 21.2695 28.292C21.2875 28.2479 21.3149 28.184 21.3496 28.1035C21.4177 27.9457 21.511 27.7345 21.6113 27.5088L21.8926 26.8789C21.928 26.7949 21.9581 26.7223 21.9795 26.667C21.9899 26.6399 21.9998 26.6132 22.0078 26.5898C22.0116 26.5787 22.0167 26.5629 22.0215 26.5459C22.0238 26.5375 22.0278 26.5235 22.0312 26.5068C22.0314 26.5062 22.031 26.505 22.0312 26.5039C22.0321 26.5014 22.033 26.4984 22.0342 26.4951C22.0452 26.4646 22.0629 26.419 22.0869 26.3594C22.1334 26.2439 22.1972 26.0924 22.2656 25.9307L22.5947 25.1992C22.7074 24.9416 22.8454 24.6167 23.0762 24.0654L23.5254 23.0156L23.9648 22.0342L23.9678 22.0273L24.2031 21.4814C24.2338 21.4088 24.2609 21.3449 24.2803 21.2959C24.2897 21.272 24.2988 21.2461 24.3066 21.2236C24.3104 21.2129 24.3163 21.1974 24.3213 21.1797C24.3226 21.175 24.3234 21.1685 24.3252 21.1611C24.3269 21.1567 24.3292 21.1509 24.332 21.1436C24.3453 21.1094 24.3663 21.0587 24.3936 20.9941C24.4476 20.8661 24.5227 20.6943 24.6045 20.5117L25.7168 18.0059L26.4043 16.4863C26.8649 15.4848 27.3594 14.4459 28.0635 13.002L29.2988 10.4854C30.1754 8.70042 30.6752 7.65298 30.9277 6.95898C31.0558 6.60715 31.1317 6.31822 31.1543 6.05078C31.1777 5.77331 31.1425 5.54463 31.085 5.32227L31.083 5.31641C31.0365 5.14574 30.9684 4.96635 30.8965 4.80957C30.8283 4.66101 30.7403 4.49752 30.6426 4.37793L30.6338 4.36621L30.624 4.35645C30.2565 3.95556 29.711 3.69238 29.1885 3.57422C28.679 3.45905 28.0784 3.45762 27.6133 3.71973V3.71875C27.2244 3.93224 26.9334 4.17437 26.6699 4.60547C26.4274 5.00226 26.2111 5.55665 25.9258 6.36816L25.9229 6.37598C25.7774 6.81229 25.4528 7.59871 25.2148 8.1123V8.11328C24.2822 10.0935 24.0511 10.6202 23.7959 11.1816L23.793 11.1865C23.3578 12.172 22.9889 13.0124 22.6709 13.7119L22.6699 13.7139C22.5858 13.9015 22.5079 14.0809 22.4502 14.2178C22.4216 14.2856 22.3962 14.3457 22.3779 14.3926C22.3691 14.4153 22.3601 14.4397 22.3525 14.4619C22.3489 14.4725 22.3438 14.4888 22.3389 14.5068C22.3379 14.5103 22.3362 14.5146 22.335 14.5195C22.3325 14.5262 22.3299 14.5358 22.3252 14.5479C22.3088 14.5899 22.2841 14.6517 22.252 14.7285C22.1885 14.8802 22.1009 15.0827 22.0068 15.2959V15.2949C21.7952 15.7581 20.345 19.3527 18.79 23.2783V23.2793C15.8885 30.5652 15.8277 30.7364 15.5742 31.3447L15.5723 31.3486C15.4041 31.7626 15.4273 31.7044 14.5596 33.9502V33.9512C14.2034 34.86 13.8681 35.7296 13.7969 35.9219L13.5771 36.4814C13.3533 37.0737 13.1114 37.7765 12.8135 38.6895L12.8125 38.6914C12.6203 39.2867 12.5014 39.6704 12.4619 39.9482C12.4401 40.1023 12.4378 40.247 12.4678 40.3945C12.4966 40.5361 12.5502 40.6536 12.5957 40.748L12.6006 40.7598L12.6074 40.7705C12.9292 41.3605 13.6645 41.7852 14.3623 41.7852ZM24.3418 21.0352C24.3418 21.0816 24.335 21.1169 24.333 21.127C24.3326 21.1292 24.3315 21.1317 24.3311 21.1338C24.3342 21.1181 24.3418 21.0813 24.3418 21.0352Z" fill="black" stroke="black"/>
<path d="M33.3623 41.7852C33.5608 41.7851 33.7991 41.766 34.043 41.6279C34.2759 41.4961 34.4591 41.2873 34.6318 41.0264C34.9692 40.5169 35.3972 39.6018 36.1172 38.0166H36.1162C36.1945 37.847 36.2675 37.6822 36.3213 37.5527C36.348 37.4885 36.3718 37.4288 36.3896 37.3799C36.3984 37.356 36.4081 37.3291 36.416 37.3027C36.4163 37.3019 36.4197 37.2885 36.4248 37.2676C36.4276 37.2603 36.4317 37.2496 36.4375 37.2354C36.4554 37.1913 36.4819 37.1272 36.5166 37.0469C36.5847 36.8891 36.678 36.6779 36.7783 36.4521L37.0596 35.8223C37.095 35.7382 37.1251 35.6657 37.1465 35.6104C37.1569 35.5833 37.1668 35.5566 37.1748 35.5332C37.1786 35.5221 37.1837 35.5063 37.1885 35.4893C37.1892 35.4867 37.1895 35.483 37.1904 35.4795C37.1933 35.4722 37.1971 35.4611 37.2031 35.4463C37.2211 35.4022 37.2485 35.3383 37.2832 35.2578C37.3523 35.0976 37.4478 34.8829 37.5498 34.6533H37.5488C37.6586 34.4204 37.7559 34.2008 37.8262 34.0342C37.8617 33.95 37.8917 33.8767 37.9131 33.8213C37.9235 33.7942 37.9334 33.7675 37.9414 33.7441C37.9452 33.733 37.9503 33.7173 37.9551 33.7002C37.9557 33.698 37.9562 33.6953 37.957 33.6924C37.9598 33.6851 37.9634 33.6737 37.9697 33.6582C37.9876 33.6142 38.0151 33.5501 38.0498 33.4697C38.1179 33.3119 38.2113 33.1007 38.3115 32.875L38.5928 32.2451C38.6282 32.1611 38.6583 32.0886 38.6797 32.0332C38.6902 32.0061 38.7 31.9785 38.708 31.9551C38.7118 31.9439 38.7169 31.9281 38.7217 31.9111C38.7223 31.9089 38.7229 31.9062 38.7236 31.9033C38.7265 31.896 38.7301 31.8846 38.7363 31.8691C38.7543 31.825 38.7817 31.7612 38.8164 31.6807C38.8845 31.5228 38.9778 31.3117 39.0781 31.0859L39.3594 30.457C39.3949 30.3728 39.4249 30.2996 39.4463 30.2441C39.4567 30.2171 39.4666 30.1904 39.4746 30.167C39.4784 30.1559 39.4835 30.1401 39.4883 30.123C39.489 30.1204 39.4893 30.1169 39.4902 30.1133C39.493 30.106 39.4971 30.0954 39.5029 30.0811C39.5209 30.0369 39.5483 29.9722 39.583 29.8916C39.651 29.7339 39.7445 29.5233 39.8447 29.2979L40.126 28.668C40.1615 28.5838 40.1915 28.5105 40.2129 28.4551C40.2233 28.4281 40.2332 28.4012 40.2412 28.3779C40.245 28.3668 40.2501 28.351 40.2549 28.334C40.2555 28.3318 40.2561 28.3291 40.2568 28.3262C40.2596 28.3188 40.2632 28.3075 40.2695 28.292C40.2875 28.2479 40.3149 28.184 40.3496 28.1035C40.4177 27.9457 40.511 27.7345 40.6113 27.5088L40.8926 26.8789C40.928 26.7949 40.9581 26.7223 40.9795 26.667C40.9899 26.6399 40.9998 26.6132 41.0078 26.5898C41.0116 26.5787 41.0167 26.5629 41.0215 26.5459C41.0238 26.5375 41.0278 26.5235 41.0312 26.5068C41.0314 26.5062 41.031 26.505 41.0312 26.5039C41.0321 26.5014 41.033 26.4984 41.0342 26.4951C41.0452 26.4646 41.0629 26.419 41.0869 26.3594C41.1334 26.2439 41.1972 26.0924 41.2656 25.9307L41.5947 25.1992C41.7074 24.9416 41.8454 24.6167 42.0762 24.0654L42.5254 23.0156L42.9648 22.0342L42.9678 22.0273L43.2031 21.4814C43.2338 21.4088 43.2609 21.3449 43.2803 21.2959C43.2897 21.272 43.2988 21.2461 43.3066 21.2236C43.3104 21.2129 43.3163 21.1974 43.3213 21.1797C43.3226 21.175 43.3234 21.1685 43.3252 21.1611C43.3269 21.1567 43.3292 21.1509 43.332 21.1436C43.3453 21.1094 43.3663 21.0587 43.3936 20.9941C43.4476 20.8661 43.5227 20.6943 43.6045 20.5117L44.7168 18.0059L45.4043 16.4863C45.8649 15.4848 46.3594 14.4459 47.0635 13.002L48.2988 10.4854C49.1754 8.70042 49.6752 7.65298 49.9277 6.95898C50.0558 6.60715 50.1317 6.31822 50.1543 6.05078C50.1777 5.77331 50.1425 5.54463 50.085 5.32227L50.083 5.31641C50.0365 5.14574 49.9684 4.96635 49.8965 4.80957C49.8283 4.66101 49.7403 4.49752 49.6426 4.37793L49.6338 4.36621L49.624 4.35645C49.2565 3.95556 48.711 3.69238 48.1885 3.57422C47.679 3.45905 47.0784 3.45762 46.6133 3.71973V3.71875C46.2244 3.93224 45.9334 4.17437 45.6699 4.60547C45.4274 5.00226 45.2111 5.55665 44.9258 6.36816L44.9229 6.37598C44.7774 6.81229 44.4528 7.59871 44.2148 8.1123V8.11328C43.2822 10.0935 43.0511 10.6202 42.7959 11.1816L42.793 11.1865C42.3578 12.172 41.9889 13.0124 41.6709 13.7119L41.6699 13.7139C41.5858 13.9015 41.5079 14.0809 41.4502 14.2178C41.4216 14.2856 41.3962 14.3457 41.3779 14.3926C41.3691 14.4153 41.3601 14.4397 41.3525 14.4619C41.3489 14.4725 41.3438 14.4888 41.3389 14.5068C41.3379 14.5103 41.3362 14.5146 41.335 14.5195C41.3325 14.5262 41.3299 14.5358 41.3252 14.5479C41.3088 14.5899 41.2841 14.6517 41.252 14.7285C41.1885 14.8802 41.1009 15.0827 41.0068 15.2959V15.2949C40.7952 15.7581 39.345 19.3527 37.79 23.2783V23.2793C34.8885 30.5652 34.8277 30.7364 34.5742 31.3447L34.5723 31.3486C34.4041 31.7626 34.4273 31.7044 33.5596 33.9502V33.9512C33.2034 34.86 32.8681 35.7296 32.7969 35.9219L32.5771 36.4814C32.3533 37.0737 32.1114 37.7765 31.8135 38.6895L31.8125 38.6914C31.6203 39.2867 31.5014 39.6704 31.4619 39.9482C31.4401 40.1023 31.4378 40.247 31.4678 40.3945C31.4966 40.5361 31.5502 40.6536 31.5957 40.748L31.6006 40.7598L31.6074 40.7705C31.9292 41.3605 32.6645 41.7852 33.3623 41.7852ZM43.3418 21.0352C43.3418 21.0816 43.335 21.1169 43.333 21.127C43.3326 21.1292 43.3315 21.1317 43.3311 21.1338C43.3342 21.1181 43.3418 21.0813 43.3418 21.0352Z" fill="black" stroke="black"/>
<path d="M8.74902 52.1035C9.30501 52.4657 10.0318 52.5557 10.7939 52.4688C11.564 52.3808 12.4248 52.1076 13.3057 51.6738L13.3115 51.6709C14.2655 51.1863 14.9267 50.2068 14.9268 49.1553C14.9268 48.661 14.8386 48.2204 14.6191 47.8252C14.4002 47.4312 14.0736 47.1232 13.6641 46.8574L13.6572 46.8535C13.1657 46.5454 12.6731 46.3758 12.0957 46.4023C11.5408 46.4278 10.956 46.6331 10.2715 46.9688V46.9697C9.99602 47.1011 9.73037 47.2219 9.52637 47.3115C9.4236 47.3567 9.33885 47.3923 9.27734 47.417C9.25165 47.4273 9.23228 47.4345 9.21875 47.4395C9.089 47.4599 8.97731 47.5095 8.89258 47.5586C8.78298 47.6222 8.68127 47.7042 8.59082 47.7891C8.40956 47.9591 8.23268 48.1798 8.08008 48.4092C7.92662 48.6399 7.78617 48.8956 7.68262 49.1455C7.58298 49.3861 7.5 49.6629 7.5 49.9219C7.50002 50.3242 7.67667 50.7696 7.8877 51.1318C8.10249 51.5005 8.40398 51.8713 8.74219 52.0996L8.74902 52.1035Z" fill="black" stroke="black"/>
<path d="M27.749 52.1035C28.305 52.4657 29.0318 52.5557 29.7939 52.4688C30.564 52.3808 31.4248 52.1076 32.3057 51.6738L32.3115 51.6709C33.2655 51.1863 33.9267 50.2068 33.9268 49.1553C33.9268 48.661 33.8386 48.2204 33.6191 47.8252C33.4002 47.4312 33.0736 47.1232 32.6641 46.8574L32.6572 46.8535C32.1657 46.5454 31.6731 46.3758 31.0957 46.4023C30.5408 46.4278 29.956 46.6331 29.2715 46.9688V46.9697C28.996 47.1011 28.7304 47.2219 28.5264 47.3115C28.4236 47.3567 28.3388 47.3923 28.2773 47.417C28.2516 47.4273 28.2323 47.4345 28.2188 47.4395C28.089 47.4599 27.9773 47.5095 27.8926 47.5586C27.783 47.6222 27.6813 47.7042 27.5908 47.7891C27.4096 47.9591 27.2327 48.1798 27.0801 48.4092C26.9266 48.6399 26.7862 48.8956 26.6826 49.1455C26.583 49.3861 26.5 49.6629 26.5 49.9219C26.5 50.3242 26.6767 50.7696 26.8877 51.1318C27.1025 51.5005 27.404 51.8713 27.7422 52.0996L27.749 52.1035Z" fill="black" stroke="black"/>
</svg>
