<svg width="398" height="398" viewBox="0 0 398 398" fill="none" xmlns="http://www.w3.org/2000/svg">
<path d="M108.07 95.2124C106.354 95.5512 102.79 98.1515 99.8456 101.371C94.5726 107.058 101.392 114.562 192.359 205.529C290.006 303.176 290.488 303.658 297.338 296.809C304.187 289.959 303.705 289.477 207.434 192.521C154.408 138.81 109.787 94.8736 108.07 95.2124Z" fill="black"/>
<path d="M108.205 276.227C97.9932 288.43 96.144 292.271 99.7949 295.922C107.429 303.556 131.244 283.059 219.145 192.503C283.139 127.181 300.778 106.887 298.567 103.124C296.847 100.197 294.451 97.2834 292.864 96.2145C289.938 94.4946 128.197 252.252 108.205 276.227Z" fill="black"/>
</svg>
