<svg width="90" height="76" viewBox="0 0 90 76" fill="none" xmlns="http://www.w3.org/2000/svg">
<path d="M70.379 0.124021C70.304 0.174021 67.829 0.349021 64.879 0.499021C56.679 0.899021 53.554 1.14902 53.004 1.44902C52.704 1.59902 52.329 2.04902 52.179 2.47402C51.929 3.07402 51.929 3.32402 52.254 3.97402C53.004 5.39902 53.279 5.42402 64.779 5.99902C81.679 6.82402 81.404 6.79902 82.054 7.52402C82.404 7.89902 82.454 8.29902 82.329 9.54902C82.154 11.324 81.804 13.724 81.429 15.749C81.279 16.499 80.979 18.524 80.754 20.249C80.254 24.224 80.529 25.649 82.004 26.849C82.804 27.499 83.154 27.624 84.379 27.624C85.579 27.624 85.979 27.499 86.754 26.899C87.904 26.024 88.154 25.424 88.429 22.874C88.654 20.599 88.929 18.849 89.554 15.624C89.804 14.199 89.979 12.024 89.979 9.74902C90.004 6.32402 89.979 6.04902 89.354 4.67402C88.004 1.77402 86.079 0.699021 81.479 0.274021C78.479 -0.000979032 70.604 -0.100979 70.379 0.124021Z" fill="black"/>
<path d="M67.0497 13.774C65.3247 14.974 60.0497 18.899 56.4747 21.674C54.6997 23.049 48.8747 27.424 45.9997 29.549C42.8247 31.899 35.9747 36.374 33.8747 37.474C30.2747 39.374 29.5997 40.199 30.2747 41.774C30.6247 42.674 31.8247 43.499 32.7247 43.499C34.2997 43.499 39.9247 41.199 43.3747 39.174C44.0747 38.774 44.9747 38.224 45.3747 37.999C46.2247 37.524 48.8497 35.874 52.6497 33.524C54.0497 32.649 56.2997 31.124 57.6747 30.149C59.0747 29.174 61.1747 27.699 62.3747 26.874C68.0997 22.899 69.9747 21.474 71.6747 19.824L73.4997 18.024V16.474C73.4997 15.199 73.3997 14.774 72.8497 14.074C72.4997 13.624 71.8247 13.074 71.3247 12.874C69.8247 12.249 69.0247 12.399 67.0497 13.774Z" fill="black"/>
<path d="M5.83827 20.2047C3.50296 20.9564 1.78875 22.9173 0.645937 26.1855C0 28.0157 0 28.1791 0 35.6305C0 45.7292 0.422343 61.3185 0.770155 63.9657C1.31672 67.9856 2.75765 70.9923 5.16749 73.182C8.32264 76.058 11.2045 76.3195 34.1601 75.7639C50.557 75.4044 56.6437 75.1102 63.103 74.3912C72.171 73.4108 75.028 70.6655 76.2454 61.8414C76.941 56.7757 77.2639 35.9247 76.7422 30.14C76.4193 26.5777 75.8975 25.6299 74.1585 25.5972C71.7486 25.5318 71.5499 26.6103 71.5499 40.3367C71.5499 47.0365 71.4008 53.0173 71.1772 56.2855C70.6804 63.3774 70.4319 64.554 69.1152 65.5018C66.7302 67.2012 63.9229 67.528 41.3648 68.5412C32.3962 68.966 25.912 68.966 17.0925 68.5412C10.0617 68.1817 9.19217 68.0183 8.04936 66.6783C6.80718 65.2403 6.83202 65.5671 6.88171 48.2784C6.9314 39.389 7.00593 31.4799 7.1053 30.6956C7.27921 28.8 7.82577 28.5386 12.2976 28.081C15.6019 27.7215 18.4589 27.5254 30.9304 26.6757C33.9365 26.4796 36.6942 26.1855 37.0668 25.9894C37.4146 25.826 37.8618 25.2377 38.0109 24.7148C38.2593 23.9304 38.2593 23.6363 37.9115 22.95C37.6631 22.4924 37.2159 21.9695 36.8681 21.7734C36.5203 21.61 33.5887 21.3159 30.359 21.1525C27.1045 20.9564 22.4587 20.6622 19.9992 20.4661C13.3162 19.9759 6.95624 19.8452 5.83827 20.2047Z" fill="black"/>
</svg>
