<svg width="100" height="100" viewBox="0 0 100 100" fill="none" xmlns="http://www.w3.org/2000/svg">
<path d="M77.379 9.12394C77.304 9.17394 74.829 9.34894 71.879 9.49894C63.679 9.89894 60.554 10.1489 60.004 10.4489C59.704 10.5989 59.329 11.0489 59.179 11.4739C58.929 12.0739 58.929 12.3239 59.254 12.9739C60.004 14.3989 60.279 14.4239 71.779 14.9989C88.679 15.8239 88.404 15.7989 89.054 16.5239C89.404 16.8989 89.454 17.2989 89.329 18.5489C89.154 20.3239 88.804 22.7239 88.429 24.7489C88.279 25.4989 87.979 27.5239 87.754 29.2489C87.254 33.2239 87.529 34.6489 89.004 35.8489C89.804 36.4989 90.154 36.6239 91.379 36.6239C92.579 36.6239 92.979 36.4989 93.754 35.8989C94.904 35.0239 95.154 34.4239 95.429 31.8739C95.654 29.5989 95.929 27.8489 96.554 24.6239C96.804 23.1989 96.979 21.0239 96.979 18.7489C97.004 15.3239 96.979 15.0489 96.354 13.6739C95.004 10.7739 93.079 9.69894 88.479 9.27394C85.479 8.99894 77.604 8.89894 77.379 9.12394Z" fill="black"/>
<path d="M74.0497 22.7742C72.3247 23.9742 67.0497 27.8992 63.4747 30.6742C61.6997 32.0492 55.8747 36.4242 52.9997 38.5492C49.8247 40.8992 42.9747 45.3742 40.8747 46.4742C37.2747 48.3742 36.5997 49.1992 37.2747 50.7742C37.6247 51.6742 38.8247 52.4992 39.7247 52.4992C41.2997 52.4992 46.9247 50.1992 50.3747 48.1742C51.0747 47.7742 51.9747 47.2242 52.3747 46.9992C53.2247 46.5242 55.8497 44.8742 59.6497 42.5242C61.0497 41.6492 63.2997 40.1242 64.6747 39.1492C66.0747 38.1742 68.1747 36.6992 69.3747 35.8742C75.0997 31.8992 76.9747 30.4742 78.6747 28.8242L80.4997 27.0242V25.4742C80.4997 24.1992 80.3997 23.7742 79.8497 23.0742C79.4997 22.6242 78.8247 22.0742 78.3247 21.8742C76.8247 21.2492 76.0247 21.3992 74.0497 22.7742Z" fill="black"/>
<path d="M12.8383 29.2047C10.503 29.9564 8.78875 31.9173 7.64594 35.1855C7 37.0157 7 37.1791 7 44.6305C7 54.7292 7.42234 70.3185 7.77016 72.9657C8.31672 76.9856 9.75765 79.9923 12.1675 82.182C15.3226 85.058 18.2045 85.3195 41.1601 84.7639C57.557 84.4044 63.6437 84.1102 70.103 83.3912C79.171 82.4108 82.028 79.6655 83.2454 70.8414C83.941 65.7757 84.2639 44.9247 83.7422 39.14C83.4193 35.5777 82.8975 34.6299 81.1585 34.5972C78.7486 34.5318 78.5499 35.6103 78.5499 49.3367C78.5499 56.0365 78.4008 62.0173 78.1772 65.2855C77.6804 72.3774 77.4319 73.554 76.1152 74.5018C73.7302 76.2012 70.9229 76.528 48.3648 77.5412C39.3962 77.966 32.912 77.966 24.0925 77.5412C17.0617 77.1817 16.1922 77.0183 15.0494 75.6783C13.8072 74.2403 13.832 74.5671 13.8817 57.2784C13.9314 48.389 14.0059 40.4799 14.1053 39.6956C14.2792 37.8 14.8258 37.5386 19.2976 37.081C22.6019 36.7215 25.4589 36.5254 37.9304 35.6757C40.9365 35.4796 43.6942 35.1855 44.0668 34.9894C44.4146 34.826 44.8618 34.2377 45.0109 33.7148C45.2593 32.9304 45.2593 32.6363 44.9115 31.95C44.6631 31.4924 44.2159 30.9695 43.8681 30.7734C43.5203 30.61 40.5887 30.3159 37.359 30.1525C34.1045 29.9564 29.4587 29.6622 26.9992 29.4661C20.3162 28.9759 13.9562 28.8452 12.8383 29.2047Z" fill="black"/>
</svg>
