<svg width="398" height="398" viewBox="0 0 398 398" fill="none" xmlns="http://www.w3.org/2000/svg">
<path d="M61.5556 109.457C60.5818 110.91 59.9001 115.269 60.0948 119.628C60.387 127.377 70.5152 127.861 199.162 127.861C337.256 127.861 337.938 127.861 337.938 118.175C337.938 108.488 337.256 108.488 200.623 108.004C125.149 107.519 62.5295 108.004 61.5556 109.457Z" fill="black"/>
<path d="M79.9346 189.301C64.0849 190.709 60.0615 192.117 60.0615 197.28C60.0615 208.076 91.3951 210.423 217.583 208.546C309.023 207.607 335.846 205.729 336.943 201.505C337.797 198.219 338.162 194.464 337.797 192.587C336.943 189.301 111.024 186.485 79.9346 189.301Z" fill="black"/>
<path d="M61.299 268.67C61.8181 272.246 62.8129 276.134 63.6072 278.018C64.3879 279.495 69.4192 280.929 74.885 281.456C80.2712 281.59 93.7379 282.948 104.736 283.99C122.599 285.683 183.972 287.139 241.04 287.015C277.448 286.992 337.462 277.681 336.874 272.075C336.646 269.258 336.009 266.116 335.572 264.977C335.055 263.446 319.928 264.061 301.858 266.09C267.236 269.841 245.996 270.469 186.3 269.49C136.175 268.615 119.013 268.006 89.795 264.526C59.3755 260.881 60.2333 260.707 61.299 268.67Z" fill="black"/>
</svg>
