<svg width="217" height="217" viewBox="0 0 217 217" fill="none" xmlns="http://www.w3.org/2000/svg">
<g clip-path="url(#clip0_436_147)">
<path d="M108.505 4.01983e-07C87.0442 -0.00184646 66.065 6.36027 48.2203 18.2818C30.3755 30.2033 16.4668 47.1488 8.25288 66.9753C0.0389853 86.8017 -2.1111 108.619 2.07452 129.667C6.26014 150.716 16.5935 170.05 31.7677 185.226C46.942 200.401 66.2757 210.736 87.3238 214.924C108.372 219.111 130.189 216.963 150.016 208.751C169.843 200.539 186.79 186.631 198.713 168.788C210.636 150.944 217 129.965 217 108.505C217.001 94.2561 214.196 80.1468 208.744 66.9824C203.292 53.8181 195.301 41.8566 185.226 31.7808C175.151 21.7051 163.19 13.7126 150.026 8.25961C136.862 2.80662 122.753 3.49211e-07 108.505 4.01983e-07ZM158.266 156.501C157.802 157.264 157.193 157.928 156.472 158.454C155.751 158.981 154.933 159.36 154.065 159.569C153.197 159.778 152.296 159.813 151.415 159.673C150.533 159.533 149.688 159.219 148.928 158.751C123.483 143.176 91.4167 139.655 53.6455 148.283C52.7692 148.513 51.8557 148.564 50.9594 148.433C50.063 148.303 49.202 147.993 48.4276 147.524C47.6531 147.054 46.9809 146.433 46.4509 145.699C45.921 144.964 45.544 144.131 45.3425 143.247C45.1409 142.364 45.1189 141.45 45.2778 140.558C45.4366 139.666 45.773 138.815 46.267 138.056C46.761 137.297 47.4026 136.645 48.1536 136.138C48.9046 135.632 49.7497 135.281 50.6387 135.108C91.9676 125.658 127.423 129.72 156.015 147.2C156.774 147.663 157.435 148.27 157.959 148.988C158.483 149.706 158.86 150.52 159.069 151.384C159.278 152.248 159.315 153.144 159.177 154.022C159.039 154.9 158.729 155.742 158.266 156.501ZM171.544 126.993C170.369 128.907 168.484 130.276 166.301 130.802C164.118 131.327 161.816 130.965 159.9 129.795C130.729 111.82 86.2809 106.628 51.7873 117.095C50.7153 117.453 49.5827 117.592 48.4562 117.504C47.3296 117.417 46.232 117.105 45.2281 116.586C44.2243 116.067 43.3345 115.353 42.6112 114.485C41.888 113.616 41.3461 112.612 41.0173 111.531C40.6886 110.45 40.5797 109.314 40.6972 108.19C40.8146 107.066 41.156 105.978 41.7012 104.988C42.2464 103.998 42.9843 103.128 43.8714 102.428C44.7585 101.728 45.7769 101.213 46.8663 100.913C86.2809 88.9514 135.267 94.7408 168.752 115.321C169.703 115.903 170.531 116.666 171.186 117.568C171.842 118.47 172.313 119.493 172.572 120.577C172.832 121.662 172.874 122.787 172.698 123.888C172.521 124.989 172.129 126.044 171.544 126.993ZM172.683 96.1788C137.713 75.4117 80.0153 73.4974 46.6235 83.6289C44.0491 84.4102 41.2699 84.1369 38.897 82.8691C36.5242 81.6012 34.7522 79.4427 33.9708 76.8684C33.1895 74.294 33.4628 71.5147 34.7307 69.1419C35.9985 66.7691 38.157 64.9971 40.7314 64.2157C79.0161 52.5809 142.774 54.8219 183.039 78.7266C185.278 80.1359 186.879 82.364 187.499 84.9362C188.12 87.5083 187.712 90.2212 186.362 92.4968C185.011 94.7723 182.826 96.4307 180.271 97.1185C177.716 97.8062 174.993 97.4691 172.683 96.1788Z" fill="white"/>
</g>
<defs>
<clipPath id="clip0_436_147">
<rect width="217" height="217" fill="white"/>
</clipPath>
</defs>
</svg>
