<svg width="217" height="217" viewBox="0 0 217 217" fill="none" xmlns="http://www.w3.org/2000/svg">
<g clip-path="url(#clip0_436_151)">
<path d="M168.939 115.405C168.687 87.9896 191.863 74.646 192.965 74.0297C179.836 55.2795 159.489 52.7116 152.355 52.5529C135.211 50.7693 118.646 62.5629 109.943 62.5629C101.072 62.5629 87.6537 52.7209 73.2175 53.0197C54.6354 53.2999 37.2391 63.8329 27.696 80.2019C8.01198 113.538 22.6909 162.589 41.5438 189.556C50.975 202.779 61.9935 217.514 76.4297 216.991C90.5484 216.43 95.8055 208.185 112.847 208.185C129.73 208.185 134.679 216.991 149.395 216.654C164.531 216.43 174.084 203.395 183.179 190.061C189.945 180.68 195.166 170.277 198.642 159.246C198.297 159.115 169.238 148.274 168.939 115.405ZM141.14 34.7831C148.732 25.4454 153.914 12.8394 152.476 0C141.486 0.466888 127.741 7.4702 119.794 16.5372C112.791 24.5396 106.544 37.6872 108.159 50.0317C120.541 50.9374 133.203 43.9341 141.14 34.7831Z" fill="white"/>
</g>
<defs>
<clipPath id="clip0_436_151">
<rect width="217" height="217" fill="white"/>
</clipPath>
</defs>
</svg>
