<svg width="217" height="217" viewBox="0 0 217 217" fill="none" xmlns="http://www.w3.org/2000/svg">
<g clip-path="url(#clip0_436_156)">
<path d="M108.505 19.5533C137.452 19.5533 140.907 19.656 152.392 20.1789C162.972 20.6644 168.714 22.4293 172.543 23.914C177.255 25.6572 181.518 28.433 185.018 32.0378C188.621 35.5378 191.394 39.8006 193.133 44.5131C194.617 48.3322 196.382 54.0749 196.868 64.6546C197.391 76.1027 197.503 79.5296 197.503 108.542C197.503 137.554 197.391 140.944 196.868 152.429C196.382 163.009 194.617 168.752 193.133 172.58C191.329 177.26 188.564 181.509 185.018 185.056C181.472 188.602 177.222 191.366 172.543 193.17C168.714 194.655 162.972 196.42 152.392 196.905C140.953 197.428 137.526 197.54 108.551 197.54C79.5763 197.54 76.14 197.428 64.6639 196.905C54.0843 196.42 48.3415 194.655 44.5224 193.17C39.81 191.431 35.5471 188.658 32.0472 185.056C28.4423 181.555 25.6666 177.293 23.9233 172.58C22.4386 168.752 20.6738 163.009 20.1882 152.429C19.6653 140.991 19.5626 137.554 19.5626 108.589C19.5626 79.623 19.6653 76.1867 20.1882 64.7013C20.6738 54.1216 22.4386 48.3789 23.9233 44.5597C25.662 39.845 28.4384 35.5815 32.0472 32.0845C35.5441 28.4758 39.8077 25.6994 44.5224 23.9607C48.3415 22.476 54.0843 20.7111 64.6639 20.2256C76.112 19.7027 79.539 19.5999 108.551 19.5999M108.505 0C79.0347 0 75.337 0.121391 63.7675 0.653643C52.198 1.18589 44.3263 3.01609 37.4257 5.69603C30.1869 8.42103 23.6291 12.691 18.2086 18.2086C12.691 23.6291 8.42103 30.1869 5.69603 37.4257C3.01609 44.3263 1.17656 52.2167 0.653643 63.7675C0.130729 75.3183 0 79.0347 0 108.505C0 137.975 0.121391 141.663 0.653643 153.242C1.18589 164.821 3.01609 172.674 5.69603 179.574C8.42103 186.813 12.691 193.371 18.2086 198.791C23.6258 204.313 30.1846 208.584 37.4257 211.304C44.3263 213.993 52.2167 215.823 63.7675 216.356C75.3183 216.888 79.0347 217 108.505 217C137.975 217 141.663 216.879 153.242 216.356C164.821 215.833 172.674 213.993 179.574 211.304C186.787 208.518 193.338 204.254 198.805 198.786C204.273 193.319 208.536 186.768 211.323 179.556C214.012 172.655 215.842 164.765 216.374 153.223C216.907 141.682 217.019 137.947 217.019 108.486C217.019 79.0254 216.897 75.3183 216.374 63.7488C215.851 52.1794 214.012 44.3076 211.323 37.407C208.602 30.1659 204.332 23.6071 198.81 18.1899C193.382 12.6768 186.818 8.41316 179.574 5.69603C172.674 3.01609 164.783 1.17656 153.242 0.653643C141.7 0.130729 137.965 0 108.505 0Z" fill="white"/>
<path d="M108.505 52.7861C97.4845 52.7861 86.7119 56.054 77.5491 62.1764C68.3862 68.2988 61.2447 77.0008 57.0275 87.182C52.8103 97.3632 51.7069 108.566 53.8568 119.375C56.0067 130.183 61.3133 140.111 69.1057 147.903C76.898 155.696 86.8261 161.002 97.6344 163.152C108.443 165.302 119.646 164.199 129.827 159.982C140.008 155.764 148.71 148.623 154.833 139.46C160.955 130.297 164.223 119.525 164.223 108.504C164.224 101.187 162.784 93.9412 159.984 87.1805C157.184 80.4199 153.08 74.2771 147.906 69.1029C142.732 63.9288 136.589 59.8246 129.828 57.0249C123.068 54.2253 115.822 52.7849 108.505 52.7861ZM108.505 144.67C101.349 144.671 94.3538 142.551 88.4036 138.577C82.4533 134.603 77.8152 128.953 75.0761 122.343C72.337 115.732 71.6199 108.458 73.0154 101.44C74.4109 94.4221 77.8563 87.9756 82.916 82.916C87.9756 77.8563 94.4222 74.4108 101.44 73.0153C108.458 71.6198 115.732 72.337 122.343 75.0761C128.953 77.8152 134.603 82.4532 138.577 88.4035C142.551 94.3538 144.671 101.349 144.67 108.504C144.667 118.095 140.856 127.293 134.074 134.074C127.293 140.856 118.095 144.667 108.505 144.67Z" fill="white"/>
<path d="M166.417 63.5996C173.606 63.5996 179.434 57.7717 179.434 50.5827C179.434 43.3937 173.606 37.5659 166.417 37.5659C159.228 37.5659 153.4 43.3937 153.4 50.5827C153.4 57.7717 159.228 63.5996 166.417 63.5996Z" fill="white"/>
</g>
<defs>
<clipPath id="clip0_436_156">
<rect width="217" height="217" fill="white"/>
</clipPath>
</defs>
</svg>
