<svg width="211" height="217" viewBox="0 0 211 217" fill="none" xmlns="http://www.w3.org/2000/svg">
<g clip-path="url(#clip0_436_143)">
<path d="M2.38793 117.74C2.17175 117.754 1.96782 117.848 1.81297 118.004C1.65812 118.16 1.56255 118.367 1.54353 118.589L0 130.644L1.54353 142.494C1.56459 142.714 1.66105 142.92 1.81571 143.074C1.97037 143.228 2.17316 143.32 2.38793 143.334C2.60269 143.32 2.80548 143.228 2.96014 143.074C3.1148 142.92 3.21126 142.714 3.23233 142.494L5.04824 130.644L3.23233 118.589C3.2133 118.367 3.11773 118.16 2.96288 118.004C2.80803 117.848 2.6041 117.754 2.38793 117.74ZM11.068 111.203C11.0188 111.001 10.9054 110.822 10.7458 110.694C10.5863 110.566 10.3897 110.496 10.1873 110.496C9.98488 110.496 9.78828 110.566 9.62871 110.694C9.46915 110.822 9.35576 111.001 9.30655 111.203L7.26365 130.644L9.33379 149.703C9.383 149.905 9.49639 150.084 9.65595 150.212C9.81552 150.34 10.0121 150.41 10.2145 150.41C10.4169 150.41 10.6135 150.34 10.7731 150.212C10.9326 150.084 11.046 149.905 11.0952 149.703L13.4559 130.635L11.0952 111.147L11.068 111.203ZM43.7544 93.228C43.3359 93.2351 42.9361 93.4079 42.6384 93.7106C42.3407 94.0133 42.1681 94.4224 42.1564 94.8528L40.5039 130.663L42.1564 153.821C42.1564 154.263 42.3272 154.687 42.6311 154.999C42.9351 155.312 43.3473 155.487 43.7771 155.487C44.207 155.487 44.6192 155.312 44.9231 154.999C45.2271 154.687 45.3978 154.263 45.3978 153.821L47.2137 130.663L45.3978 94.8061C45.3814 94.3693 45.201 93.956 44.8946 93.653C44.5881 93.3501 44.1795 93.181 43.7544 93.1813V93.228ZM26.8392 105.638C26.5152 105.647 26.2067 105.782 25.9758 106.016C25.7449 106.25 25.609 106.565 25.5953 106.898L23.734 130.654L25.5953 153.634C25.6219 153.953 25.764 154.25 25.9935 154.467C26.2229 154.684 26.5231 154.804 26.8347 154.804C27.1462 154.804 27.4464 154.684 27.6758 154.467C27.9053 154.25 28.0474 153.953 28.074 153.634L30.1896 130.654L28.074 106.889C28.0604 106.559 27.9253 106.246 27.6962 106.013C27.467 105.781 27.1608 105.647 26.8392 105.638ZM60.942 155.455C61.4569 155.448 61.949 155.235 62.3148 154.863C62.6806 154.49 62.8915 153.986 62.9032 153.457L64.5194 130.672L62.9032 82.9378C62.8694 82.4278 62.6486 81.95 62.2854 81.6011C61.9221 81.2521 61.4436 81.058 60.9466 81.058C60.4495 81.058 59.971 81.2521 59.6078 81.6011C59.2446 81.95 59.0237 82.4278 58.9899 82.9378L57.5554 130.672L59.0172 153.466C59.0264 153.989 59.2319 154.488 59.5906 154.858C59.9494 155.229 60.4336 155.443 60.942 155.455ZM96.1435 155.558C96.8566 155.558 97.5413 155.27 98.0506 154.757C98.5599 154.244 98.8531 153.545 98.8674 152.812L99.9932 130.691L98.8674 75.5983C98.7517 74.9547 98.4204 74.373 97.9311 73.9543C97.4418 73.5356 96.8254 73.3063 96.1889 73.3063C95.5524 73.3063 94.936 73.5356 94.4467 73.9543C93.9574 74.373 93.6262 74.9547 93.5104 75.5983L92.5026 130.691L93.5104 152.85C93.5331 153.56 93.8178 154.236 94.3068 154.739C94.7957 155.241 95.4524 155.534 96.1435 155.558ZM78.4111 155.473C79.0222 155.469 79.6069 155.217 80.0399 154.774C80.4728 154.33 80.7193 153.73 80.7264 153.102L82.0974 130.691L80.7264 82.6017C80.6895 81.9947 80.429 81.4251 79.998 81.0087C79.567 80.5923 78.9979 80.3605 78.4066 80.3605C77.8153 80.3605 77.2462 80.5923 76.8152 81.0087C76.3842 81.4251 76.1237 81.9947 76.0868 82.6017L74.861 130.691L76.0868 153.102C76.0963 153.73 76.345 154.329 76.7797 154.771C77.2143 155.213 77.8001 155.462 78.4111 155.464V155.473ZM35.265 155.259C35.6347 155.249 35.9871 155.096 36.2503 154.828C36.5135 154.561 36.6677 154.201 36.6814 153.821L38.6699 130.644L36.6814 108.607C36.6529 108.24 36.4908 107.897 36.2274 107.647C35.9641 107.397 35.6189 107.258 35.2605 107.258C34.9021 107.258 34.5569 107.397 34.2935 107.647C34.0302 107.897 33.8681 108.24 33.8395 108.607L32.0872 130.644L33.8395 153.821C33.8512 154.203 34.006 154.566 34.2716 154.834C34.5371 155.102 34.893 155.254 35.265 155.259ZM18.4769 153.989C18.7505 153.982 19.0116 153.87 19.2084 153.675C19.4052 153.479 19.5233 153.215 19.5392 152.934L21.791 130.644L19.5392 107.524C19.5235 107.242 19.4057 106.977 19.2091 106.78C19.0125 106.583 18.7513 106.468 18.4769 106.46C18.2028 106.466 17.9415 106.58 17.7459 106.778C17.5503 106.976 17.4351 107.242 17.4237 107.524L15.4353 130.644L17.4237 152.887C17.4351 153.169 17.5503 153.435 17.7459 153.633C17.9415 153.831 18.2028 153.945 18.4769 153.951V153.989ZM87.2365 81.7986C86.5758 81.7986 85.9421 82.0679 85.4741 82.5474C85.0061 83.027 84.742 83.6777 84.7396 84.3572L83.6228 130.682L84.7396 152.971C84.7396 153.652 85.0026 154.305 85.4709 154.787C85.9392 155.268 86.5742 155.539 87.2365 155.539C87.8987 155.539 88.5338 155.268 89.002 154.787C89.4703 154.305 89.7333 153.652 89.7333 152.971L90.9863 130.672L89.7333 84.3478C89.7285 83.67 89.4634 83.0217 88.9956 82.5441C88.5279 82.0666 87.8955 81.7986 87.2365 81.7986ZM52.3165 155.501C52.7888 155.502 53.2426 155.313 53.5816 154.974C53.9206 154.636 54.1182 154.175 54.1324 153.69L55.8393 130.672L54.096 86.5889C54.0127 86.1667 53.79 85.7872 53.4657 85.5145C53.1413 85.2419 52.7353 85.093 52.3165 85.093C51.8976 85.093 51.4916 85.2419 51.1672 85.5145C50.8429 85.7872 50.6202 86.1667 50.5369 86.5889L49.0296 130.672L50.5732 153.699C50.5889 154.171 50.7773 154.618 51.1006 154.953C51.424 155.287 51.8583 155.483 52.3165 155.501ZM71.774 153.326L73.2721 130.672L71.774 81.3317C71.774 80.7497 71.5492 80.1916 71.149 79.7801C70.7489 79.3685 70.2062 79.1374 69.6403 79.1374C69.0744 79.1374 68.5317 79.3685 68.1315 79.7801C67.7314 80.1916 67.5066 80.7497 67.5066 81.3317L66.1719 130.672L67.5066 153.326C67.5066 153.908 67.7314 154.466 68.1315 154.877C68.5317 155.289 69.0744 155.52 69.6403 155.52C70.2062 155.52 70.7489 155.289 71.149 154.877C71.5492 154.466 71.774 153.908 71.774 153.326ZM185.051 102.23C181.604 102.235 178.192 102.949 175.018 104.331C174.008 92.6055 168.767 81.6939 160.326 73.7441C151.885 65.7943 140.857 61.3824 129.411 61.377C123.732 61.3862 118.103 62.4687 112.805 64.5705C110.843 65.3455 110.326 66.1485 110.308 67.7079V152.42C110.321 153.207 110.613 153.963 111.13 154.544C111.647 155.125 112.352 155.492 113.113 155.576L185.051 155.623C191.935 155.623 198.538 152.81 203.406 147.804C208.274 142.797 211.009 136.007 211.009 128.926C211.009 121.846 208.274 115.055 203.406 110.049C198.538 105.042 191.935 102.23 185.051 102.23ZM105.005 67.6799C104.25 67.6871 103.527 67.9978 102.991 68.5456C102.454 69.0934 102.148 69.8349 102.136 70.612L100.965 130.691L102.145 152.513C102.186 153.264 102.505 153.969 103.036 154.485C103.567 155.002 104.27 155.289 105.001 155.289C105.731 155.289 106.434 155.002 106.965 154.485C107.496 153.969 107.815 153.264 107.856 152.513L109.127 130.682L107.856 70.5466C107.847 69.7729 107.543 69.0337 107.01 68.4874C106.477 67.9411 105.758 67.6312 105.005 67.6239V67.6799Z" fill="white"/>
</g>
<defs>
<clipPath id="clip0_436_143">
<rect width="211" height="217" fill="white"/>
</clipPath>
</defs>
</svg>
