<svg width="179" height="75" viewBox="0 0 179 75" fill="none" xmlns="http://www.w3.org/2000/svg">
<path d="M37.0851 8.57172C29.9918 11.4091 28.0411 17.4384 31.4104 25.4184C34.0704 31.8024 33.8931 32.1571 29.6371 35.7037C22.3664 42.0877 23.0758 52.3731 31.4104 58.2251C36.5531 62.1264 57.6558 62.8357 64.0398 59.4664C67.0544 57.8704 69.0051 58.0477 73.6158 60.1757C82.3051 64.2544 89.2211 61.7717 92.0584 53.4371C94.7184 44.9251 93.8318 43.5064 86.2064 44.7477L79.9998 45.8117V30.3837C79.9998 16.0197 79.6451 14.6011 75.3891 10.6997C71.1331 6.62106 69.1824 6.26639 56.2371 6.44372C48.2571 6.62106 39.7451 7.50772 37.0851 8.57172ZM59.7838 17.0837C68.6504 19.3891 69.7144 21.6944 62.7984 23.2904C59.9611 23.9997 57.1238 25.0637 56.0598 25.7731C55.1731 26.4824 51.9811 27.5464 49.1438 28.2557C44.5331 29.3197 44.1784 29.1424 46.1291 26.8371C47.3704 25.2411 47.9024 22.7584 47.3704 20.9851C46.6611 19.3891 47.1931 17.4384 48.4344 16.5517C51.2718 14.7784 50.3851 14.7784 59.7838 17.0837ZM64.5718 40.6691C65.1038 42.0877 64.3944 44.2157 62.9758 45.4571C59.2518 48.4717 41.8731 49.8904 40.0998 47.0531C37.4398 42.7971 42.7598 40.6691 61.5571 38.3637C62.7984 38.3637 64.0398 39.2504 64.5718 40.6691Z" fill="#535338"/>
<path d="M139.938 35.7037C133.022 39.4277 131.249 43.5064 133.377 51.3091C135.328 58.2251 139.938 61.2397 148.45 61.2397C163.878 61.2397 170.617 43.3291 158.026 35.8811C151.997 32.1571 146.322 32.1571 139.938 35.7037Z" fill="#535338"/>
</svg>
