<svg width="158" height="75" viewBox="0 0 158 75" fill="none" xmlns="http://www.w3.org/2000/svg">
<path d="M52.084 9.6359C49.424 14.4239 54.0347 18.6799 61.8373 18.6799H68.044L66.98 31.2706C65.7387 47.5852 64.1427 49.7132 54.3893 49.8906C44.636 50.0679 41.7987 52.3732 45.168 57.5159C48.0053 62.1266 53.3253 63.1906 75.8467 63.5452L93.58 63.8999V59.4666C93.58 55.7426 92.516 54.8559 86.132 53.4372C79.216 51.8412 78.5067 51.1319 78.3293 46.3439C78.152 43.3292 78.3293 39.9599 78.5067 39.0732C78.684 38.0092 79.0387 36.4132 79.216 35.3492C79.3933 34.1079 81.876 31.2706 84.7133 28.9652C95.5307 19.9212 101.56 18.6799 101.56 25.5959C101.56 29.8519 105.639 33.2212 109.185 31.8026C110.604 31.2706 112.909 28.4332 113.973 25.5959C115.924 20.9852 115.747 19.9212 111.491 15.8426C107.057 11.2319 106.88 11.2319 95.3533 13.3599C88.9693 14.6012 83.8267 16.1972 83.8267 17.0839C83.8267 17.7932 82.2307 19.3892 80.4573 20.2759C77.62 21.8719 77.2653 21.6946 77.9747 18.6799C79.3933 13.5372 75.8467 10.1679 67.3347 8.92657C63.256 8.21724 58.468 7.33057 56.872 6.9759C55.0987 6.4439 53.148 7.5079 52.084 9.6359Z" fill="#535338"/>
</svg>
