<svg width="132" height="75" viewBox="0 0 132 75" fill="none" xmlns="http://www.w3.org/2000/svg">
<path d="M44.9386 8.5718C37.8452 11.4091 35.8946 17.4385 39.2639 25.4185C41.9239 31.8025 41.7466 32.1571 37.4906 35.8811C27.3826 44.3931 34.8306 60.8851 48.8399 61.4171C59.3026 61.9491 69.0559 60.8851 72.4252 59.1118C74.7306 57.8705 77.3906 58.2251 81.2919 59.9985C87.3212 62.8358 95.4786 62.3038 98.3159 58.7571C99.2026 57.6931 100.267 53.9691 100.621 50.5998C101.153 44.3931 101.153 44.3931 94.5919 44.9251L87.8532 45.6345V30.2065C87.8532 16.0198 87.4986 14.6011 83.2426 10.6998C78.9866 6.62114 77.0359 6.26647 64.0906 6.4438C56.1106 6.62114 47.5986 7.5078 44.9386 8.5718ZM73.6666 19.2118L78.0999 20.9851L71.8932 22.9358C68.5239 23.9998 64.9772 25.4185 63.9132 25.9505C63.0266 26.4825 59.8346 27.5465 56.9972 28.2558C52.3866 29.3198 52.0319 29.1425 53.9826 26.8371C55.2239 25.2411 55.7559 22.7585 55.2239 20.9851C52.9186 15.1331 61.4306 14.2465 73.6666 19.2118ZM72.4252 40.6691C72.9572 42.0878 72.2479 44.2158 70.8292 45.4571C67.1052 48.4718 49.7266 49.8905 47.9532 47.0531C45.2932 42.7971 50.6132 40.6691 69.4106 38.3638C70.6519 38.3638 71.8932 39.2505 72.4252 40.6691Z" fill="#535338"/>
</svg>