<svg width="146" height="75" viewBox="0 0 146 75" fill="none" xmlns="http://www.w3.org/2000/svg">
<path d="M35.0028 9.69999C33.2295 14.1333 35.7122 17.68 40.3228 17.68C45.6428 17.68 46.5295 20.1627 47.5935 38.0733C48.6575 55.452 49.5442 58.4667 53.9775 58.4667C55.9282 58.4667 59.1202 59.176 60.8935 60.24C63.1988 61.4813 66.9228 60.9493 74.3708 58.4667C81.4642 55.984 85.0108 55.452 85.7202 56.8707C86.4295 57.9347 91.7495 58.4667 99.1975 58.112C111.079 57.58 111.433 57.4027 111.965 52.792C112.497 48.536 111.611 47.8267 105.581 45.876C97.7788 43.5707 97.7788 43.5707 95.2962 18.9213L94.0548 7.03999H83.7695C75.4348 7.03999 73.1295 7.74932 71.7108 10.4093C69.2282 14.8427 70.8242 15.9067 78.8042 15.9067C83.4148 15.9067 85.3655 16.616 84.8335 18.0347C84.3015 19.276 83.7695 23.532 83.2375 27.4333C82.8828 31.1573 81.6415 34.704 80.5775 35.0587C79.5135 35.4133 78.6268 37.1867 78.6268 38.96C78.6268 45.5213 63.1988 51.196 60.0068 46.0533C59.2975 44.9893 58.5882 36.832 58.4108 27.788C57.8788 12.5373 57.5242 11.296 53.6228 9.34532C47.5935 6.15332 36.2442 6.33066 35.0028 9.69999Z" fill="#535338"/>
</svg>
