<svg width="189" height="171" viewBox="0 0 189 171" fill="none" xmlns="http://www.w3.org/2000/svg">
<path d="M181.912 53.7647C179.039 47.6299 174.498 44.7617 170.417 40.0928C166.305 35.3921 161.732 27.6001 156 24.8116C155.54 23.2659 154.143 23.2181 153.333 22.6604C152.809 22.3098 152.285 21.8955 151.729 21.5928C135.566 12.3507 108.129 2.93339 90.0288 0.686613C77.9301 -0.811238 69.7849 0.144837 58.1307 3.52297C54.8599 4.46311 51.478 6.34339 48.1914 7.52255C47.3181 7.84124 46.159 7.12418 46.4925 8.73358C46.1432 8.70171 45.778 8.73358 45.4287 8.73358C45.0794 8.73358 44.7142 8.70171 44.3649 8.73358V9.80119C43.9203 9.97647 43.6821 10.1199 43.3011 10.343C41.4751 11.3947 41.9832 11.7133 41.6974 11.9524C41.237 12.3348 40.6177 12.6854 40.0938 13.02C36.2355 15.5695 31.3294 17.7844 27.2329 20.2224C25.2641 21.4016 24.5496 20.4614 23.5335 23.2181C23.1048 23.3137 22.168 23.0428 21.9457 23.234C21.771 23.3934 22.0251 24.1583 21.9298 24.2857C21.8504 24.3335 21.7869 24.3813 21.7234 24.4451C20.8343 25.0506 17.6746 26.1979 17.1189 28.5721C13.737 29.6876 14.8325 30.2293 12.832 32.5876C10.7361 35.0416 9.94224 34.691 9.10073 38.2285C6.76672 39.089 7.13191 40.8577 6.43329 43.0567C6.32215 43.4232 6.0046 43.7737 5.89346 44.1243C4.86141 44.4111 4.70264 44.5067 4.21043 45.4309C1.49536 50.4025 -0.0765183 59.6924 0.00286964 65.3332C0.161646 75.9775 2.86084 85.2514 5.29011 94.8759C5.51239 95.7364 5.59178 96.6765 6.43329 97.2024C6.36978 97.5211 6.48093 97.9354 6.43329 98.27C6.17925 99.8635 6.57619 101.266 7.33832 102.987C7.73526 103.879 8.54501 103.576 8.57677 103.64C9.02134 104.532 9.64057 106.843 9.64057 107.926C8.78318 108.134 7.83052 108.149 6.97313 108.468V109.536H10.7044C10.8155 110.46 11.2918 112.053 11.7682 112.755C12.1016 113.806 12.435 115.193 12.959 116.149C13.4512 117.057 14.0704 118.188 14.5626 119.049C14.7214 119.336 17.0078 120.738 17.6429 120.801C18.2303 122.522 19.2306 122.682 19.7863 123.479C21.5805 126.092 21.39 125.741 23.5335 127.765C24.0257 128.243 24.0574 128.482 25.1371 129.374C25.931 130.028 26.2009 130.059 26.7407 130.442C26.7884 130.474 26.6137 131.207 27.1059 131.525C29.8527 133.262 30.8213 131.78 32.2503 132.131C32.8854 132.29 33.3141 133.326 34.0603 133.565C35.14 133.9 36.3308 133.565 37.4264 133.677C37.5057 133.804 37.3152 134.362 37.5534 134.601C37.8868 134.935 38.4108 134.681 38.4902 134.744C39.6333 135.589 41.0306 136.943 42.2373 137.963C42.4278 138.122 41.6022 138.122 43.3011 139.031C47.0641 141.07 50.1284 142.616 54.5265 143.317H55.0664V144.385C55.7173 144.608 55.9873 143.907 56.1302 143.859C56.3842 143.763 56.8764 143.923 57.194 143.859C57.8132 145.404 57.7973 145.086 59.8614 145.468C60.4965 145.58 61.3221 145.389 62.0049 145.468V146.536C62.3542 146.568 62.7194 146.536 63.0687 146.536C63.4021 146.536 63.8149 146.584 64.1325 146.536C64.3865 147.237 65.1486 147.046 65.7361 147.078C68.7846 147.173 71.7855 146.95 74.8181 147.619L78.0254 155.666C77.9936 156.734 78.0095 157.818 78.0254 158.885C78.0571 160.813 78.2635 161.514 78.5652 163.172C78.6287 163.506 78.5017 163.936 78.5652 164.239C79.0415 166.311 79.2638 164.892 79.629 165.307C79.7401 165.434 79.5655 166.486 79.629 166.916C80.1371 169.992 80.7087 171.888 84.6145 170.581C87.8377 169.498 84.6781 165.88 84.4399 164.781C84.2811 164.048 84.5352 162.933 84.4399 162.104C84.2335 160.112 83.6778 161.387 83.3761 161.036C83.3285 160.973 83.3285 159.73 83.3761 159.427C83.4555 158.933 84.2494 158.327 83.9318 157.1C83.773 156.479 82.9157 156.814 82.8363 156.75C82.7569 156.67 82.8363 156.081 82.2964 155.682V155.141C82.2964 154.79 82.2964 154.423 82.2964 154.073C82.2964 152.463 82.5822 150.727 81.7566 149.245C81.8518 149.197 82.0265 148.448 82.6616 148.289C83.519 148.066 84.3129 148.289 84.948 148.177C85.599 148.05 86.4722 147.651 86.5516 147.635C87.0756 147.572 87.6313 147.667 88.1553 147.635C88.6316 147.603 90.0764 147.635 90.8227 147.635C91.172 147.635 91.5372 147.635 91.8865 147.635C101.318 147.731 107.161 148.623 116.989 147.635C117.164 147.619 117.354 147.651 117.529 147.635L134.121 145.245C146.156 139.174 164.733 136.083 174.958 127.797C181.277 122.666 187.216 111.751 188.533 103.353C190.312 92.0396 186.771 64.17 181.912 53.8125V53.7647ZM176.736 118.81C171.401 126.586 162.002 129.518 153.761 132.752C144.378 136.449 134.883 140.289 124.896 141.851C122.864 142.17 120.434 142.393 118.593 143.301C118.402 143.158 117.418 143.413 116.989 143.301C116.925 143.285 116.846 142.855 115.925 142.759C115.163 142.68 114.02 142.68 113.258 142.759C112.686 142.807 112.146 143.014 111.654 143.301C111.305 143.158 110.114 143.349 109.511 143.301C109.161 143.269 108.78 143.349 108.447 143.301C107.764 143.221 107.002 143.381 106.303 143.301C102.445 142.855 98.7139 142.234 94.8238 142.234H86.2817C82.6457 142.234 78.5811 142.648 74.2624 142.234C71.9442 142.01 69.1339 142.01 66.784 141.692C66.6888 141.692 65.6885 141.277 65.1804 141.15C63.9419 140.831 62.3065 139.971 60.9093 139.541C60.7188 139.477 60.3377 139.158 59.8455 138.999C58.1307 138.441 56.1302 138.218 53.9708 137.389C43.8568 133.485 43.1423 129.374 35.6322 123.606C35.1559 123.239 34.3461 123.542 34.2032 123.447C34.1556 123.415 34.4096 122.459 33.8539 122.347C32.9806 122.172 31.901 122.953 30.853 122.809C28.916 122.57 26.6613 119.941 23.5335 121.837C23.3271 120.164 22.1204 118.316 20.3262 118.077C20.2627 117.933 20.3897 117.678 20.3262 117.535C18.3415 113.44 14.6261 109.233 13.3877 105.202C13.1654 104.5 13.0542 103.767 12.8478 103.05C12.1333 100.437 11.2601 96.6128 10.7044 93.9358C10.6409 93.6171 10.7838 93.1869 10.7044 92.8682C10.2439 90.8604 10.0851 92.1989 9.64057 91.8006C9.52942 91.7049 9.73583 91.0357 9.64057 90.7329C9.16424 89.1076 8.97371 87.6098 9.10073 85.9048H8.03693C8.02105 85.7295 8.05281 85.5542 8.03693 85.3789C7.87815 83.8333 7.87815 81.8574 6.97313 80.5507C7.00489 80.0249 6.98901 79.4672 6.97313 78.9413C6.94138 78.1446 7.11603 77.4276 6.43329 76.7902C6.46505 76.4396 6.41742 76.0731 6.43329 75.7226C6.6397 71.5158 5.73468 67.6119 5.87758 63.6282C6.25864 53.4938 10.2757 47.8052 14.4515 39.2642C14.6261 38.8977 14.8167 38.5631 14.9913 38.1966C17.1983 37.5433 18.9448 34.3245 19.8022 32.3008C24.0574 29.9903 26.9313 27.1858 31.0594 24.5725C33.2505 23.1862 36.5372 22.3895 37.4264 20.5092H39.5698V18.8998C40.1732 18.7724 40.5066 18.3899 40.6336 18.3581C43.2058 17.7207 41.6974 17.7366 42.2373 17.2904C42.8406 16.7805 44.1267 16.0794 44.9047 15.1393C46.9688 15.3942 47.7468 12.6057 49.5727 12.048C49.922 11.9364 53.9708 11.3309 54.209 11.3468C54.7012 11.3947 54.2566 13.1156 55.5903 12.4623C55.6697 11.7611 55.2569 10.7413 55.9079 10.2474C57.7338 8.89292 64.4818 7.96872 66.8475 7.39507C70.2295 6.56648 75.8819 4.09661 79.2797 4.95708C80.2959 5.21203 79.105 5.35544 82.0424 5.57853C87.2502 5.99283 92.3311 5.83348 97.3801 7.23573C107.462 10.0243 118.99 12.8128 128.627 16.6212C133.724 18.629 140.504 23.8396 145.886 24.2379L155.349 30.8348C166.035 43.2798 176.736 50.8168 180.483 68.058C183.897 83.7536 186.295 104.883 176.784 118.778L176.736 118.81Z" fill="black"/>
<path d="M116.495 165.731C115.787 164.669 114.236 156.286 114.05 154.538C113.899 153.023 115.568 150.978 113.039 150.26C105.471 148.137 108.387 159.596 109.432 163.046C110.443 166.339 112.904 172.084 117.439 169.227C118.939 167.089 117.017 166.558 116.478 165.731H116.495Z" fill="black"/>
<path d="M61.3723 71.0506C61.1967 70.9241 61.053 70.6869 60.8295 70.5129C60.4783 70.2441 59.7758 69.8487 59.2171 69.4534C58.9457 69.2636 57.0618 68.805 55.9922 67.8562C54.5394 67.5399 53.0067 67.4925 51.5539 67.1604C50.9473 67.018 50.3566 66.2906 50.0852 66.259C49.1273 66.1008 47.882 66.3539 46.8603 66.259C43.811 65.9743 41.7675 65.8004 38.6703 66.4171C37.7603 66.5911 36.4831 66.5278 36.6587 67.8562C35.4773 68.3464 32.923 70.1334 32.1566 71.098C30.2728 73.4701 31.1349 77.4236 27 77.4394L29.1553 77.9613C29.5544 79.8431 28.6444 82.152 28.8519 83.8441C29.1872 86.6431 32.2365 91.0868 32.3802 93.3957C32.3802 93.5696 32.3642 93.7594 32.3802 93.9333C34.9505 96.4161 36.0521 99.0096 39.3568 100.844C39.6442 101.002 40.1231 101.239 40.4264 101.382C41.6398 101.904 44.6412 102.884 45.7906 102.979C46.3175 103.026 46.8762 102.979 47.4031 102.979C47.4669 102.979 48.0097 102.489 48.6962 102.425C49.9575 102.315 53.3899 103.137 53.3101 101.651C53.1504 98.1715 50.2768 98.5352 47.3871 98.725L44.705 96.0682C43.9068 93.7278 44.0505 94.724 42.5498 92.8738C41.7356 91.8775 40.4903 90.8813 40.3945 90.7389C40.2828 90.5808 38.8778 87.8292 38.7821 87.5445C38.7342 87.3864 38.83 87.1808 38.7821 87.0068C38.7342 86.8487 38.83 86.6431 38.7821 86.4692C38.5905 85.8208 38.3829 84.6822 38.2393 84.3343C39.1652 83.8757 38.6703 82.4999 38.7821 81.6776C39.0694 79.5901 38.798 79.3687 38.7821 77.9455C38.7342 74.7036 41.4961 73.7232 41.4642 71.5566C42.7733 71.6041 44.1303 71.4301 45.4394 71.6199C47.1955 71.8729 50.8674 72.3632 52.3522 72.7585C53.9487 73.1697 61.3883 78.6255 62.1227 80.112C63.6872 83.2906 63.0806 92.3361 60.0313 94.4868C58.2751 95.7203 52.9429 94.724 53.9167 98.8673C54.4915 101.334 58.6104 100.654 60.5102 100.275C64.1502 99.5157 67.5507 93.6013 68.333 90.2013C68.3969 89.885 68.2691 89.4738 68.333 89.1417C68.4448 88.5092 68.8598 86.6906 68.8758 86.485C68.9716 85.0775 69.0993 82.4524 68.8758 81.1715C68.3969 78.2934 63.7192 72.9008 61.3564 71.0664L61.3723 71.0506Z" fill="black"/>
<path d="M113.646 66.056C109.445 65.8007 98.2175 66.3432 95.2288 69.2629C94.6633 69.8053 94.9703 70.1404 94.8734 70.3637C94.6956 70.7307 94.4856 71.0657 94.3241 71.4327H93.2417C93.1771 71.7837 93.3063 72.1826 93.2417 72.5017C93.2094 72.6772 93.274 72.8686 93.2417 73.0441C91.0607 73.092 91.4969 75.0704 91.0607 76.267C89.8814 79.5058 90.4791 78.3411 90.5114 81.1012C90.5114 81.3565 89.9137 82.0426 90.0106 82.9041C90.156 84.2284 90.8669 85.0899 91.0607 85.9355C91.1415 86.2546 90.9799 86.7173 91.0607 87.0045C91.9977 90.1475 93.7425 93.3385 96.6504 95.1892C97.4259 95.6838 98.1044 95.8115 98.6698 96.1306C99.7038 96.7049 102.709 97.7739 103.339 98.2366C103.856 98.6195 103.872 99.7523 104.486 99.8959C106.117 100.311 107.83 99.3534 109.3 99.3374C110.657 99.3215 114.276 100.055 115.164 99.9278C115.73 99.848 115.681 98.4918 116.36 98.3323C116.844 98.2206 117.798 98.8588 118.525 98.8109C119.445 98.7471 120.14 98.4121 120.964 98.2685C121.594 98.1568 122.224 98.4759 122.983 98.1249C123.177 98.0292 125.811 95.4445 126.134 95.0616C130.641 89.7168 131.578 84.5953 130.706 77.655C129.639 69.2788 121.223 66.5187 113.646 66.04V66.056ZM124.421 86.9407C123.71 89.8444 121.109 90.5783 120.415 93.4502C118.46 93.3544 116.861 93.865 114.97 93.9926C115.003 94.5191 114.922 95.0775 114.97 95.604H114.421C113.355 95.5243 112.224 95.7157 111.158 95.604V93.9926C110.98 93.7693 110.334 94.5191 110.075 94.5351C106.457 94.5989 104.033 90.5145 103.016 90.2433C102.66 88.233 101.885 84.4039 100.835 82.7286C100.948 80.8619 101.109 77.2881 102.482 76.0436C103.209 75.3735 106.957 74.3843 104.631 72.5336L106.812 71.4646C107.345 71.5125 107.911 71.4646 108.444 71.4646C112.983 71.5763 118.315 71.4327 122.289 74.7034C125.552 77.3838 125.358 83.0796 124.405 86.9566L124.421 86.9407Z" fill="black"/>
</svg>
