<svg width="160" height="75" viewBox="0 0 160 75" fill="none" xmlns="http://www.w3.org/2000/svg">
<path d="M44.1079 2.96113C41.2706 5.79846 43.3986 8.81313 49.0732 9.87713C54.5706 10.7638 55.2799 11.6505 55.4572 16.6158C55.9892 28.6745 55.8119 33.1078 54.9252 34.7038C54.3932 35.5905 54.2159 40.2011 54.3932 45.1665C55.1026 58.4665 53.8612 61.6585 47.8319 62.8998C41.8026 64.3185 39.6746 68.0425 43.0439 71.9438C44.8172 74.0718 48.3639 74.6038 59.5359 74.0718C67.5159 73.7171 74.4319 72.6531 75.1412 71.7665C76.0279 70.5251 77.4466 70.7025 79.5746 71.9438C81.3479 73.0078 88.9732 73.3625 97.4852 73.0078C111.495 72.2985 112.027 72.1211 112.027 68.0425C112.027 65.2051 110.963 63.6091 109.012 63.4318C107.239 63.2545 104.579 63.0771 103.16 62.7225C101.741 62.5451 99.0812 62.3678 97.4852 62.1905C95.7119 62.0131 94.2932 60.9491 94.2932 59.5305C94.2932 58.1118 93.0519 56.6931 91.6332 55.9838C90.2146 55.4518 88.9732 53.3238 88.9732 51.3731C88.9732 49.0678 87.1999 47.1171 84.5399 46.0531C79.9292 44.2798 78.8652 41.7971 81.8799 39.8465C82.9439 39.3145 83.6532 37.5411 83.6532 36.1225C83.6532 32.9305 78.5106 32.9305 77.2692 36.1225C76.0279 39.1371 66.2746 43.3931 64.5012 41.7971C63.7919 41.0878 63.2599 32.7531 63.2599 23.3545C63.2599 13.7785 62.5506 5.08913 61.8412 3.84779C60.4226 1.71979 46.0586 0.833128 44.1079 2.96113ZM79.3972 56.3385C82.5892 59.5305 81.8799 64.6731 78.3332 64.6731C64.6786 65.0278 60.9546 58.9985 69.9986 50.8411C75.6732 45.8758 75.6732 45.8758 76.2052 49.7771C76.5599 51.9051 77.9786 54.9198 79.3972 56.3385Z" fill="#535338"/>
<path d="M92.1654 23.1773C91.1014 23.8866 87.2001 23.8866 83.4761 23.532C77.2694 22.6453 76.5601 23 76.5601 26.3693C76.5601 29.5613 77.2694 29.916 81.1707 29.0293C84.7174 28.1426 85.6041 28.32 84.5401 30.0933C83.6534 31.512 84.1854 32.044 86.4907 31.3346C94.4707 29.0293 102.451 27.6106 105.465 28.1426C107.061 28.32 108.48 27.4333 108.48 26.0146C108.48 23.1773 95.7121 21.0493 92.1654 23.1773Z" fill="#535338"/>
</svg>
